<?xml version="1.0" encoding="UTF-8" standalone="no"?>
<!-- Creator: CorelDRAW -->

<svg
   xmlns:dc="http://purl.org/dc/elements/1.1/"
   xmlns:cc="http://creativecommons.org/ns#"
   xmlns:rdf="http://www.w3.org/1999/02/22-rdf-syntax-ns#"
   xmlns:svg="http://www.w3.org/2000/svg"
   xmlns="http://www.w3.org/2000/svg"
   xmlns:sodipodi="http://sodipodi.sourceforge.net/DTD/sodipodi-0.dtd"
   xmlns:inkscape="http://www.inkscape.org/namespaces/inkscape"
   xml:space="preserve"
   width="531.49634"
   height="155.7007"
   style="fill-rule:evenodd"
   viewBox="0 0 5.9055147 1.7300077"
   id="svg2"
   version="1.1"
   inkscape:version="0.48.1 r9760"
   sodipodi:docname="deustotech_unidades.svg"><metadata
   id="metadata111"><rdf:RDF><cc:Work
       rdf:about=""><dc:format>image/svg+xml</dc:format><dc:type
         rdf:resource="http://purl.org/dc/dcmitype/StillImage" /></cc:Work></rdf:RDF></metadata><sodipodi:namedview
   pagecolor="#ffffff"
   bordercolor="#666666"
   borderopacity="1"
   objecttolerance="10"
   gridtolerance="10"
   guidetolerance="10"
   inkscape:pageopacity="0"
   inkscape:pageshadow="2"
   inkscape:window-width="1280"
   inkscape:window-height="969"
   id="namedview109"
   showgrid="false"
   fit-margin-top="0"
   fit-margin-left="0"
   fit-margin-right="0"
   fit-margin-bottom="0"
   inkscape:zoom="0.33860625"
   inkscape:cx="265.74805"
   inkscape:cy="-241.51581"
   inkscape:window-x="-2"
   inkscape:window-y="-3"
   inkscape:window-maximized="1"
   inkscape:current-layer="Layer_x0020_1" />
 <defs
   id="defs4">
  <style
   type="text/css"
   id="style6">
   
    .fil0 {fill:#1F1A17}
    .fil1 {fill:#0762AA}
   
  </style>
 </defs>
 <g
   id="Layer_x0020_1"
   transform="translate(1e-6,-3.0738653e-7)">
  <metadata
   id="CorelCorpID_0Corel-Layer" />
  <g
   id="_122470056">
   <path
   id="_122469048"
   class="fil0"
   d="m 3.47304,0.684697 c 0,-0.0893071 0.048898,-0.184685 0.13063,-0.184685 l 0.045047,0 c 0.070366,0 0.13063,0.0869449 0.13063,0.157657 l 0,0.0360394 c 0,0.0913937 -0.049795,0.180181 -0.144142,0.180181 l -0.031535,0 c -0.082689,0 -0.13063,-0.0997795 -0.13063,-0.184685 l 0,-0.004508 z M 3.310875,0.7072246 c 0,0.169091 0.137213,0.288287 0.310815,0.288287 l 0.027028,0 c 0.15811,0 0.292795,-0.129823 0.292795,-0.288287 l 0,-0.0360433 c 0,-0.0839764 -0.041614,-0.160976 -0.084465,-0.203823 C 3.8199535,0.4302599 3.731863,0.3783859 3.662233,0.3783859 l -0.054055,0 c -0.160764,0 -0.297303,0.131492 -0.297303,0.292795 l 0,0.0360433 z"
   inkscape:connector-curvature="0"
   style="fill:#1f1a17" />
   <path
   id="_122469144"
   class="fil0"
   d="m 1.26579,0.612626 c 0,-0.0611102 0.061055,-0.121622 0.12613,-0.121622 l 0.009,0 c 0.074035,0 0.126134,0.0509252 0.126134,0.121622 l 0,0.0180157 -0.261268,0 0,-0.0180157 z m 0.153157,0.270276 c -0.087937,0 -0.150819,-0.066437 -0.157661,-0.14865 l 0.418929,0 c 0,-0.196669 -0.068622,-0.355866 -0.261268,-0.355866 l -0.027028,0 c -0.163646,0 -0.279283,0.125406 -0.279283,0.283791 l 0,0.0765748 c 0,0.0192756 0.024429,0.0957283 0.033252,0.110894 0.02202,0.0378465 0.032906,0.0518228 0.064744,0.0794055 0.049465,0.0428386 0.125965,0.0664606 0.217319,0.0664606 0.082276,0 0.153248,-0.0164882 0.207213,-0.0450433 l 0,-0.12613 C 1.590113,0.8481811 1.518007,0.8829016 1.450479,0.8829016 l -0.031531,0 z"
   inkscape:connector-curvature="0"
   style="fill:#1f1a17" />
   <path
   id="_122469240"
   class="fil0"
   d="m 1.7703,0.792807 c 0,0.110874 0.079067,0.202705 0.193701,0.202705 l 0.013512,0 c 0.111606,0 0.133138,-0.0495354 0.193697,-0.0900906 l 0,0.0765787 0.14865,0 0,-0.590098 -0.157657,0 0,0.292795 c 0,0.0865945 -0.034913,0.189193 -0.117118,0.189193 l -0.031535,0 c -0.067646,0 -0.085587,-0.0702441 -0.085587,-0.139638 l 0,-0.34235 -0.157661,0 0,0.400906 z"
   inkscape:connector-curvature="0"
   style="fill:#1f1a17" />
   <path
   id="_122469312"
   class="fil0"
   d="M 2.81658,0.400976 2.68073,0.3754642 2.653202,0.3783852 c -0.126764,0 -0.243248,0.0519291 -0.243248,0.175681 0,0.226705 0.274776,0.141728 0.274776,0.25676 l 0,0.004508 c 0,0.0448819 -0.055165,0.0675669 -0.103602,0.0675669 l -0.01802,0 c -0.064894,0 -0.103402,-0.0330236 -0.139638,-0.0360394 L 2.4179,0.9233538 2.41896,0.9729916 2.567023,0.9990034 2.590133,0.9955114 c 0.126504,0 0.25676,-0.0560827 0.25676,-0.175677 l 0,-0.0045 c 0,-0.238461 -0.274776,-0.160264 -0.274776,-0.261268 0,-0.043811 0.047693,-0.063063 0.094598,-0.063063 l 0.027028,0 c 0.046484,0 0.081815,0.0195827 0.116429,0.0224843 l 0.00641,-0.112512 z"
   inkscape:connector-curvature="0"
   style="fill:#1f1a17" />
   <path
   id="_122469456"
   class="fil0"
   d="m 2.98654,0.283791 0,0.10811 -0.112618,0 0,0.112614 0.112618,0 0,0.292795 c 0,0.114575 0.06372,0.198201 0.175677,0.198201 l 0.027028,0 c 0.025642,0 0.103606,4.1732e-4 0.103606,-0.0225197 L 3.293871,0.9098023 3.288351,0.8603732 C 3.27539,0.8672312 3.263182,0.8738889 3.243304,0.8738889 l -0.040539,0 c -0.042106,0 -0.058563,-0.0456969 -0.058563,-0.0900906 l 0,-0.279283 0.139646,0 0,-0.112614 -0.139646,0 0,-0.166673 C 3.121986,0.2358897 2.986545,0.2649685 2.986545,0.2837913 z"
   inkscape:connector-curvature="0"
   style="fill:#1f1a17" />
   <path
   id="_122470128"
   class="fil0"
   d="M 1.56309,1.60814 C 1.5637554,1.578309 1.583314,1.545077 1.612645,1.545077 l 0.013516,0 c 0.024917,0 0.045039,0.025976 0.045039,0.049547 l 0,0.013516 -0.10811,0 z m 0.054055,0.099102 c -0.034819,0 -0.054055,-0.038811 -0.054055,-0.076583 l 0.135138,0 0,-0.013512 c 0,-0.045039 -0.025791,-0.094598 -0.067567,-0.094598 l -0.00901,0 c -0.048043,0 -0.085591,0.043571 -0.085591,0.090098 l 0,0.013512 c 0,0.051268 0.029185,0.103602 0.076583,0.103602 l 0.031528,0 c 0.020878,0 0.013551,-0.00841 0.040543,-0.009 l 0,-0.027028 C 1.666572,1.698573 1.666647,1.707245 1.639671,1.707245 l -0.022528,0 z"
   inkscape:connector-curvature="0"
   style="fill:#1f1a17" />
   <path
   id="_122470200"
   class="fil0"
   d="M 2.09463,1.60814 C 2.0952954,1.578309 2.114851,1.545077 2.144181,1.545077 l 0.013512,0 c 0.024921,0 0.045047,0.025976 0.045047,0.049547 l 0,0.013516 -0.10811,0 z m 0.054055,0.099102 c -0.034819,0 -0.054055,-0.038811 -0.054055,-0.076583 l 0.135138,0 0,-0.013512 c 0,-0.057567 -0.027429,-0.094598 -0.085587,-0.094598 -0.039287,0 -0.076579,0.048571 -0.076579,0.090098 l 0,0.013512 c 0,0.051268 0.029185,0.103602 0.076579,0.103602 l 0.031532,0 c 0.020878,0 0.013551,-0.00841 0.040543,-0.009 l 0,-0.027028 C 2.198106,1.698573 2.198185,1.707245 2.171209,1.707245 l -0.022524,0 z"
   inkscape:connector-curvature="0"
   style="fill:#1f1a17" />
   <path
   id="_122470272"
   class="fil0"
   d="m 1.23876,1.61265 c 0,-0.027504 0.022098,-0.067571 0.045047,-0.067571 l 0.031532,0 c 0.015945,0 0.031528,0.027961 0.031528,0.045043 l 0,0.135138 0.022528,0 0,-0.148654 c 0,-0.039614 -0.039071,-0.054055 -0.081083,-0.054055 -0.024969,0 -0.037059,0.02689 -0.049551,0.036043 l 0,-0.031535 -0.022524,0 0,0.198201 0.022524,0 0,-0.11261 z"
   inkscape:connector-curvature="0"
   style="fill:#1f1a17" />
   <path
   id="_122470344"
   class="fil0"
   d="m 1.88742,1.61265 c 0,-0.027504 0.022102,-0.067571 0.045047,-0.067571 l 0.031535,0 c 0.015945,0 0.031528,0.027961 0.031528,0.045043 l 0,0.135138 0.022528,0 0,-0.148654 c 0,-0.039614 -0.039075,-0.054055 -0.081083,-0.054055 -0.024968,0 -0.037063,0.02689 -0.049555,0.036043 l 0,-0.031535 -0.02252,0 0,0.198201 0.02252,0 0,-0.11261 z"
   inkscape:connector-curvature="0"
   style="fill:#1f1a17" />
   <path
   id="_122450688"
   class="fil0"
   d="m 1.40092,1.54507 0.040543,0 0,0.144146 c 0,0.019976 0.018563,0.043492 0.036039,0.040539 l 0.035909,-0.00527 1.26e-4,-0.017248 -0.027028,0 c -0.010504,0 -0.02252,-0.01202 -0.02252,-0.022528 l 0,-0.1351381 0.045039,0 0,-0.02252 -0.045039,0 0,-0.054055 -0.022484,0.00467 -4.33e-5,0.04939 -0.040543,0 0,0.01802 z"
   inkscape:connector-curvature="0"
   style="fill:#1f1a17" />
   <path
   id="_122470416"
   class="fil0"
   d="m 2.24779,1.54507 0.040543,0 0,0.144146 c 0,0.019976 0.018563,0.043492 0.036035,0.040539 l 0.035906,-0.00527 1.299e-4,-0.017248 -0.027028,0 c -0.010504,0 -0.022524,-0.01202 -0.022524,-0.022528 l 0,-0.1351381 0.045047,0 0,-0.02252 -0.045047,0 0,-0.054055 -0.022484,0.00467 -3.54e-5,0.04939 -0.040543,0 0,0.01802 z"
   inkscape:connector-curvature="0"
   style="fill:#1f1a17" />
   <path
   id="_122450568"
   class="fil0"
   d="m 1.7613,1.62616 c 0,-0.035594 0.015035,-0.076583 0.049547,-0.076583 l 0.01802,0 0,-0.02252 C 1.818765,1.524707 1.818509,1.522547 1.806339,1.522547 1.787091,1.522547 1.771012,1.551913 1.7613,1.56309 l 0,-0.036035 -0.022528,0 0,0.198201 0.022528,0 0,-0.099098 z"
   inkscape:connector-curvature="0"
   style="fill:#1f1a17" />
   <path
   id="_84669320"
   class="fil1"
   d="m 0.34685,0.184689 0.243248,0 c 0.0971811,0 0.169465,0.0149173 0.240606,0.0431772 0.0884567,0.0351496 0.101898,0.0659843 0.155799,0.128 l 0,-0.355866 -0.986504,0 0,0.914429 c 0,0.252555 0.227291,0.481996 0.481988,0.481996 l 0.0315315,0 c 0.143626,0 0.29285,-0.093886 0.356713,-0.174835 0.095437,-0.120984 0.116272,-0.19926 0.116272,-0.410764 -0.0536614,0.0617362 -0.0676024,0.0931417 -0.155799,0.127992 -0.0693189,0.0273937 -0.146063,0.0431811 -0.240606,0.0431811 l -0.243248,0 0,-0.797311 z"
   inkscape:connector-curvature="0"
   style="fill:#0762aa" />
   <path
   id="_122469624"
   class="fil1"
   d="m 4.6127,0.450461 0.031528,0 c 0.08237,0 0.135138,0.0993386 0.135138,0.184689 l 0,0.0135118 -0.324331,0 c 0,-0.0944488 0.070618,-0.198201 0.157665,-0.198201 z m -0.238748,0.211717 0,0.0360315 c 0,0.167843 0.083563,0.297303 0.247756,0.297303 l 0.049547,0 c 0.030146,0 0.14415,-0.0196732 0.14415,-0.0405394 l 0,-0.063063 C 4.7593146,0.904977 4.7399564,0.9324495 4.6532402,0.9324495 l -0.022524,0 c -0.10228,0 -0.175681,-0.101303 -0.175681,-0.207213 l 0,-0.0135118 0.405413,0 0,-0.0225197 c 0,-0.167012 -0.065728,-0.301811 -0.229732,-0.301811 l -0.031532,0 c -0.123756,0 -0.225232,0.146035 -0.225232,0.274783 z"
   inkscape:connector-curvature="0"
   style="fill:#0762aa" />
   <path
   id="_122469888"
   class="fil1"
   d="M 5.36587,0.414512 C 5.3667716,0.3964057 5.249146,0.3873939 5.220819,0.3873939 l -0.022528,0 c -0.142126,0 -0.270276,0.134035 -0.270276,0.274783 l 0,0.0360315 c 0,0.173831 0.108661,0.297303 0.283791,0.297303 l 0.022528,0 L 5.36518,0.9789405 5.35944,0.9280704 5.36046,0.9099287 C 5.32272,0.9130667 5.290838,0.9324484 5.243342,0.9324484 l -0.02252,0 c -0.127465,0 -0.21172,-0.106417 -0.21172,-0.23424 l 0,-0.0045 c 0,-0.130295 0.075933,-0.243248 0.198209,-0.243248 l 0.031528,0 c 0.052402,0 0.091492,0.0245157 0.12072,0.026937 l 0.00631,-0.0628858 z"
   inkscape:connector-curvature="0"
   style="fill:#0762aa" />
   <path
   id="_122469216"
   class="fil1"
   d="m 0.509016,0.855874 0.10361,0 c 0.138787,0 0.25676,-0.123409 0.25676,-0.265776 l 0,-0.0135118 c 0,-0.137413 -0.117291,-0.265768 -0.247756,-0.265768 l -0.112614,0 0,0.545055 z"
   inkscape:connector-curvature="0"
   style="fill:#0762aa" />
   <path
   id="_122469528"
   class="fil1"
   d="m 5.51812,0.653169 c 0,-0.103535 0.064492,-0.202709 0.171173,-0.202709 l 0.02252,0 c 0.086953,0 0.121626,0.0787441 0.121626,0.166665 l 0,0.364874 0.072075,0 0,-0.387394 c 0,-0.120425 -0.068386,-0.207213 -0.189193,-0.207213 l -0.040543,0 c -0.027969,0 -0.076524,0.0270591 -0.095512,0.039626 C 5.541924,0.452396 5.5399,0.4795456 5.51812,0.4955023 l 0,-0.369374 -0.072075,0 0,0.85587 0.072075,0 0,-0.328831 z"
   inkscape:connector-curvature="0"
   style="fill:#0762aa" />
   <polygon
   id="_122469696"
   class="fil1"
   points="4.19377,0.982 4.19377,0.252256 4.43251,0.252256 4.43251,0.184689 3.87394,0.184689 3.87394,0.252256 4.11269,0.252256 4.11269,0.982 "
   style="fill:#0762aa" />
   <polygon
   id="_122450616"
   class="fil0"
   points="1.13065,1.45048 1.13065,1.72526 1.15768,1.72526 1.15768,1.45048 "
   style="fill:#1f1a17" />
  </g>
  
  
  
  
 </g>
</svg>