<?xml version="1.0" encoding="UTF-8"?>
<!DOCTYPE svg PUBLIC "-//W3C//DTD SVG 1.1//EN" "http://www.w3.org/Graphics/SVG/1.1/DTD/svg11.dtd">
<!-- Creator: CorelDRAW -->
<svg xmlns="http://www.w3.org/2000/svg" xml:space="preserve" width="3.53865in" height="2.86544in" style="shape-rendering:geometricPrecision; text-rendering:geometricPrecision; image-rendering:optimizeQuality; fill-rule:evenodd; clip-rule:evenodd"
viewBox="0 0 3.52586 2.85509"
 xmlns:xlink="http://www.w3.org/1999/xlink">
 <defs>
  <style type="text/css">
   <![CDATA[
    .fil0 {fill:#449284;fill-rule:nonzero}
    .fil1 {fill:#9168A1;fill-rule:nonzero}
    .fil3 {fill:white;fill-rule:nonzero}
    .fil2 {fill:#1B3459;fill-rule:nonzero}
   ]]>
  </style>
 </defs>
 <g id="Layer_x0020_1">
  <metadata id="CorelCorpID_0Corel-Layer"/>
  <g id="_127254976">
   <path id="_127036096" class="fil0" d="M1.41182 2.70045c-0.0299151,-0.080519 -0.0475362,-0.121418 -0.0528595,-0.122701l-0.00135336 0.00561742c-0.00158088,0.00655497 -0.00283225,0.0171935 -0.00322845,0.0309272 -0.000368741,0.0128236 -0.00187117,0.0253059 -0.00457788,0.0365407 -0.00699432,0.0290246 -0.0212575,0.0414363 -0.0418992,0.0364622 -0.031292,-0.00753958 -0.0545227,-0.0339438 -0.0699079,-0.0782673 -0.0153851,-0.0443235 -0.0281852,-0.0672208 -0.0388394,-0.0697902 -0.00532714,-0.00128275 -0.0082143,-0.000988541 -0.00866542,0.000886548 -0.00045112,0.00187117 -0.00200846,0.00248704 -0.00467203,0.00184371 -0.00732383,-0.00176525 -0.00906554,-0.01209 -0.00455435,-0.0308174 0.00609208,-0.0252784 0.0128393,-0.0474303 0.0197904,-0.0645768 -0.00528398,-0.0131609 -0.0150125,-0.0254118 -0.0287461,-0.0356581 0.00180448,-0.00748859 0.00609992,-0.0282519 0.0126667,-0.0613405 0.00656673,-0.0330886 0.0153969,-0.0755488 0.0264631,-0.127365 0.0108661,-0.0508706 0.026416,-0.164953 0.0399927,-0.227062 0.0137768,-0.063043 0.0623526,-0.381702 0.0757175,-0.447836 0.0240231,-0.118856 0.101886,-0.320613 0.154585,-0.492309 0.00525653,0.00760235 0.0104464,0.0152518 0.0156009,0.0228973l0.0920637 0.135932 0.436951 0c-0.00906162,0.0320491 -0.01717,0.0621211 -0.0228267,0.085599 -0.0476069,0.197559 -0.156637,0.616669 -0.196873,0.807081 -0.0400398,0.189474 -0.0834571,0.436951 -0.0999524,0.571871 -0.000929699,0.0075945 -0.00267141,0.0151262 -0.00341674,0.0229522 -0.000643336,0.00671188 -0.00205554,0.0143652 -0.00386002,0.0218577 -0.00789656,0.0327709 -0.0192805,0.0478579 -0.0352619,0.0440057 -0.00732383,-0.00176525 -0.0184802,-0.0129648 -0.0332063,-0.0317745 -0.0149066,-0.0190412 -0.0234425,-0.0284362 -0.0261022,-0.0290756l-0.00135336 0.00561742 0.0127647 0.0318059c-0.00537029,0.0105915 -0.0141063,0.0292914 -0.0259845,0.0581317 -0.018645,-0.00449551 -0.0307899,-0.00691586 -0.0377411,-0.00711592 -0.00705316,-0.000203985 -0.0126745,0.00289501 -0.0166875,0.0078691 -0.00401693,0.00497409 -0.00772003,0.0120822 -0.0127412,0.0207044 -0.00458965,0.00788479 -0.012953,0.0186764 -0.0245527,0.0317314 -0.0394357,-0.0293189 -0.0575746,-0.0505293 -0.0539618,-0.0655104 0.000902239,-0.00374625 0.0028754,-0.00645297 0.00535852,-0.00762196 0.00308331,-0.00145535 0.00512315,-0.00372272 0.00602539,-0.00746505 0.00338536,-0.0140475 -0.0109602,-0.0392984 -0.0441548,-0.0740464zm0.205381 -2.09753l0.0136434 -0.0468184c0.0945115,-0.324951 0.176505,-0.510263 0.245319,-0.556093 0.0582572,0.0447511 0.103911,0.074572 0.137846,0.088698 0.0332691,0.0139612 0.0627606,0.0289893 0.0873525,0.0468066 0.0245958,0.0178133 0.0504862,0.044857 0.0772238,0.0830021 0.0262983,0.0370467 0.0644827,0.103707 0.112329,0.200434 -0.00893217,0.0136983 -0.0156401,0.0239721 -0.0198806,0.0298837 0.00352266,0.00877526 0.00660204,0.0164482 0.00924599,0.0230306 0.00264003,0.0065785 0.00750428,0.0127059 0.0145927,0.0183743 -0.0042876,0.0177937 -0.0148673,0.0558604 -0.0317471,0.114208 -0.0063196,0.0217832 -0.0128314,0.0439508 -0.0194766,0.0664048l0 -0.0802758 -0.491289 0 0 0.496565 -0.0322217 -0.0509255c-0.0174211,-0.0278321 -0.0377999,-0.0599205 -0.0599675,-0.0853048 0.0151302,-0.00891648 0.0290913,-0.0199003 0.0413539,-0.0333279 0.033171,-0.0364897 0.0478854,-0.0817821 0.0478854,-0.130746 0,-0.0391297 -0.00973242,-0.0761294 -0.0308017,-0.109171 -0.0208927,-0.0325983 -0.0498781,-0.0565939 -0.0861992,-0.0699079 -0.00488386,-0.00178879 -0.00997171,-0.0033932 -0.0152086,-0.00483679zm0.594658 0.174623l-0.00160049 0.00536244 -0.00404831 0.0129805 -0.248704 0 0 -0.0183429 0.254353 0zm-0.0695548 0.20482c-0.00814761,0.020677 -0.0130825,0.0306604 -0.0148713,0.0302329 -0.00466026,-0.00112584 -0.00639805,-0.0114506 -0.00477402,-0.0298837l3.13822e-005 -0.000349127 0.0196139 0zm-0.0437233 0c-0.00220068,0.00548012 -0.00455827,0.011686 -0.00709239,0.0185979 -0.00197316,0.00538598 -0.00503685,0.0144751 -0.00886548,0.0262748l-0.125117 0 0 -0.0448727 0.141075 0z"/>
   <path id="_125411816" class="fil1" d="M0.0594615 1.5022c-0.0244272,0.0311626 -0.0370507,0.047854 -0.0371801,0.0508353 0.00322845,-0.00585279 0.00484463,-0.00877134 0.00484463,-0.00877134 -0.000364819,0.00895178 -0.00850851,0.0258158 -0.024486,0.0513413l0.0263219 0.0145104c-0.000235367,0.00597047 -0.00492701,0.0110191 -0.0140318,0.0143888 -0.00913615,0.00411892 -0.014122,0.0166247 -0.0149301,0.03678 0.0149262,0.00059234 0.0275575,0.00259296 0.037137,0.00597439 0.0103326,0.0034089 0.0199748,0.00528398 0.0281773,0.00561742 0.00609208,-0.00274595 0.00916754,-0.00486425 0.0092303,-0.00635098 5.49189e-005,-0.00150242 0.00163972,-0.00367957 0.00474656,-0.0065432l0.00462888 -0.00355012 -0.00964219 0.0168013c-0.00644905,0.0117056 -0.00977164,0.0197983 -0.0100109,0.0257687 -0.000808093,0.0201474 0.0136944,0.0311979 0.0428093,0.0323629 0.102247,0.00411107 0.200909,0.00433859 0.297484,0.000741405 0.0965592,-0.00284402 0.191494,-0.00276948 0.284782,0.000980695 0.114188,0.00458573 0.226827,0.0106033 0.338661,0.0180879 0.112576,0.00751212 0.229694,0.013714 0.352085,0.0186332l0.677327 0.0361759c0.0551425,0.00446412 0.108069,0.00808093 0.157323,0.0100619 0.0500076,0.00200454 0.0992659,0.00398554 0.148528,0.00596655 0.117181,0.00470734 0.22993,0.00774357 0.339018,0.00913223 0.109834,0.00142397 0.239984,-0.0101678 0.35964,-0.0113368 0,0 0.0108151,-0.00853597 0.0316568,-0.0248861 0.0216145,-0.0170759 0.145374,-0.0284951 0.169374,-0.0492113 0.0247527,-0.0206848 0.0464928,-0.040742 0.0659027,-0.0586495 0.0201827,-0.0186254 0.0294993,-0.0272162 0.0294993,-0.0272162 0.0057351,0.00620976 0.0115879,0.00943429 0.0175544,0.00967358 0.00596263,0.00023929 0.0111682,0.00119645 0.0170131,0.0044249 0.0483169,-0.0302093 0.0790715,-0.0514041 0.0922677,-0.0635843 0.013969,-0.0128863 0.0211987,-0.0253059 0.021642,-0.0365054 0.000482502,-0.0119449 -0.0030127,-0.0180644 -0.0104699,-0.0183586 -0.00746113,-0.000302054 -0.0109249,-0.00716692 -0.0103287,-0.0220931 0.000568803,-0.0141769 0.0074219,-0.0355875 0.0204651,-0.0627292 0.0130393,-0.0271143 0.0189941,-0.0448413 0.0193511,-0.0537852 0.000478579,-0.0119449 -0.0133178,-0.0222186 -0.042064,-0.0323394 -0.0287344,-0.0101208 -0.0680249,-0.0184292 -0.117044,-0.0263807 -0.0497683,-0.00798286 -0.222751,-0.00864188 -0.285382,-0.012647 -0.0626272,-0.00400908 -0.129024,-0.00742975 -0.199179,-0.0102502 -0.0985167,-0.00395024 -0.207543,-0.00683741 -0.325587,-0.00859481 -0.11804,-0.00174564 -0.247221,-0.0054409 -0.387539,-0.011074l-0.713801 -0.00251842c-0.148877,0.00298916 -0.289466,0.00407185 -0.422554,0.00470341 -0.133084,0.000631568 -0.251999,0.00183586 -0.357463,0.00357758 -0.104707,0.00103169 -0.19444,0.00191039 -0.266961,0.00198493 -0.073254,4.31506e-005 -0.125564,-0.000553112 -0.157657,-0.00184371l-0.0318334 0.0293659c-0.0932916,-0.00374625 -0.14091,0.00929307 -0.142075,0.0383962 -0.000333436,0.00821038 2.35367e-005,0.0179389 0.00109053,0.0284519 0.00111407,0.00975988 0.00140828,0.0209869 0.000953236,0.0321786 -0.00107484,0.026871 -0.00773572,0.0437978 -0.0192962,0.0523024z"/>
   <polygon id="_127034128" class="fil2" points="0.0711906,1.16479 0.0711906,0.639605 0.231491,0.639605 0.327697,0.997885 0.422789,0.639605 0.583463,0.639605 0.583463,1.16479 0.484048,1.16479 0.484048,0.751369 0.378701,1.16479 0.275579,1.16479 0.170606,0.751369 0.170606,1.16479 "/>
   <path id="_1270341281" class="fil2" d="M0.668179 0.90544c0,-0.0535577 0.00802601,-0.0984343 0.0242036,-0.134751 0.0121018,-0.0266592 0.0285304,-0.050749 0.0493996,-0.0720222 0.0208731,-0.0211556 0.0437194,-0.0369291 0.0685427,-0.0472028 0.0330965,-0.0139376 0.0711357,-0.0207868 0.114357,-0.0207868 0.0781771,0 0.140667,0.0239682 0.187595,0.0720222 0.0469282,0.0479364 0.0703943,0.114698 0.0703943,0.200172 0,0.0848615 -0.0233366,0.151137 -0.0699,0.199073 -0.0465595,0.0478108 -0.108798,0.071779 -0.186607,0.071779 -0.0789106,0 -0.141648,-0.0238466 -0.188207,-0.0714142 -0.0465634,-0.0476892 -0.0697784,-0.113353 -0.0697784,-0.196869zm0.110281 -0.00354619c0,0.0594262 0.0139612,0.10455 0.0416207,0.135242 0.027789,0.0306918 0.0629881,0.045975 0.105715,0.045975 0.0426053,0 0.0776789,-0.0151615 0.105095,-0.0457318 0.0272947,-0.0304486 0.0410048,-0.0760588 0.0410048,-0.136952 0,-0.0601637 -0.0133414,-0.10504 -0.0398907,-0.134751 -0.0266788,-0.0295935 -0.0621211,-0.0443902 -0.106209,-0.0443902 -0.0442137,0 -0.0797815,0.0150399 -0.106829,0.0450021 -0.0269181,0.0299583 -0.0405066,0.0750781 -0.0405066,0.135607z"/>
   <path id="_12703412812" class="fil2" d="M1.26652 1.16479l0 -0.52519 0.225513 0c0.0566842,0 0.0978106,0.00476618 0.123493,0.0141848 0.0256903,0.00941467 0.0463163,0.0261649 0.0617524,0.0502547 0.0154361,0.0242114 0.0230934,0.0517258 0.0230934,0.0827824 0,0.0393769 -0.011733,0.0720222 -0.0350736,0.0977047 -0.0233405,0.025553 -0.0584141,0.0418168 -0.104974,0.0484228 0.0232189,0.0134473 0.0423621,0.0281224 0.0574295,0.0441391 0.0150674,0.0160206 0.0353207,0.0443902 0.0608815,0.0852302l0.0648357 0.102471 -0.128067 0 -0.0774318 -0.114333c-0.0275418,-0.0408401 -0.0463123,-0.0665186 -0.056441,-0.0771572 -0.0101247,-0.0106386 -0.0208692,-0.0178526 -0.0322335,-0.0218891 -0.0113564,-0.00391101 -0.0292639,-0.00586848 -0.0539696,-0.00586848l-0.0216106 0 0 0.219248 -0.107198 0zm0.107198 -0.303133l0.0791617 0c0.0513766,0 0.0834846,-0.00207515 0.0963278,-0.0063549 0.0127216,-0.00427975 0.0227286,-0.0117409 0.0300132,-0.0222579 0.007163,-0.0105131 0.0108661,-0.0235994 0.0108661,-0.0393729 0,-0.017731 -0.00481717,-0.0319157 -0.014326,-0.0427975 -0.00950882,-0.0108818 -0.0229718,-0.017731 -0.0403811,-0.0206652 -0.00864581,-0.0011023 -0.0347048,-0.00171425 -0.0781771,-0.00171425l-0.0834846 0 0 0.133163z"/>
   <polygon id="_127034128123" class="fil2" points="1.8014,1.16479 1.8014,0.639605 2.19462,0.639605 2.19462,0.728499 1.90847,0.728499 1.90847,0.844912 2.17473,0.844912 2.17473,0.93332 1.90847,0.93332 1.90847,1.07627 2.20474,1.07627 2.20474,1.16479 "/>
   <polygon id="_1270341281234" class="fil2" points="2.50077,1.16479 2.50077,0.639605 2.60241,0.639605 2.60241,1.16479 "/>
   <path id="_12703412812345" class="fil2" d="M2.78259 0.900427l-0.0922559 -0.0165071c0.0103758,-0.0368074 0.0281577,-0.0639531 0.0534753,-0.081684 0.0254392,-0.0176094 0.0629842,-0.0265337 0.112878,-0.0265337 0.0454493,0 0.0791617,0.00537813 0.101388,0.0160167 0.0221088,0.0106386 0.0377921,0.0240898 0.0468105,0.0404752 0.00901455,0.0163855 0.0135807,0.0463437 0.0135807,0.0901219l-0.00111015 0.117511c0,0.0333789 0.00160834,0.0580807 0.0049427,0.0739758 0.00320883,0.0157774 0.00938721,0.0328964 0.0182762,0.0509922l-0.100651 0c-0.00259296,-0.00672364 -0.00592732,-0.0166287 -0.00975595,-0.0297151 -0.00160834,-0.00599009 -0.00284009,-0.00990502 -0.0035815,-0.0118586 -0.0174132,0.0167503 -0.0359366,0.0292247 -0.0556996,0.0376626 -0.019759,0.00831237 -0.0408793,0.0124705 -0.0633529,0.0124705 -0.039522,0 -0.070763,-0.0106386 -0.0934877,-0.0317941 -0.0228463,-0.0212732 -0.0342106,-0.0481757 -0.0342106,-0.0807034 0,-0.0213988 0.00518984,-0.0405968 0.0155617,-0.0574726 0.0103758,-0.0168719 0.024945,-0.0297111 0.0435939,-0.0386394 0.0186489,-0.00892432 0.0456925,-0.0167503 0.0808916,-0.0234778 0.0474225,-0.00880272 0.0803974,-0.017119 0.0986775,-0.0246978l0 -0.0100305c0,-0.0194413 -0.00481717,-0.0331357 -0.0144515,-0.041452 -0.00963435,-0.00819076 -0.0277851,-0.0123489 -0.0545855,-0.0123489 -0.0181546,0 -0.0322335,0.00354619 -0.0423582,0.0106386 -0.0101286,0.00697078 -0.0182802,0.0193197 -0.0245762,0.0370507zm0.135971 0.081684c-0.0129687,0.00427975 -0.0335947,0.00941467 -0.061874,0.0154048 -0.0281616,0.00599401 -0.0465595,0.0118625 -0.0553269,0.0174878 -0.0132158,0.00941467 -0.0198846,0.0211516 -0.0198846,0.035458 0,0.0141848 0.00530752,0.0262905 0.0159304,0.0365642 0.0106229,0.0102698 0.0240859,0.0154048 0.0405066,0.0154048 0.0184018,0 0.035815,-0.00599009 0.0524868,-0.0178526 0.0123528,-0.00904593 0.0203788,-0.0201749 0.0242075,-0.0333789 0.00271849,-0.00855951 0.00395416,-0.024945 0.00395416,-0.0490347l0 -0.0200533z"/>
   <path id="_127034128123456" class="fil2" d="M3.11443 1.16479l0 -0.52519 0.101639 0 0 0.189164c0.0313705,-0.0353364 0.0684172,-0.0530674 0.111395,-0.0530674 0.0468066,0 0.0854617,0.0168719 0.116212,0.0503763 0.0306251,0.0335084 0.0459436,0.081684 0.0459436,0.144535 0,0.0649338 -0.0156872,0.115067 -0.0469321,0.15016 -0.0312449,0.0350932 -0.0691586,0.0525809 -0.113741,0.0525809 -0.0219833,0 -0.0435939,-0.00538205 -0.0649612,-0.0162638 -0.0213674,-0.0108818 -0.0397652,-0.0269024 -0.0552053,-0.0481757l0 0.05588 -0.0943507 0zm0.100898 -0.198461c0,0.0393769 0.00629998,0.06848 0.0187705,0.0874309 0.0176604,0.0267808 0.0410009,0.0401065 0.0702727,0.0401065 0.022352,0 0.0414952,-0.00953628 0.057304,-0.0284912 0.0158088,-0.018951 0.0237132,-0.0489092 0.0237132,-0.0897532 0,-0.0434095 -0.00803385,-0.0748349 -0.0239643,-0.094033 -0.0158049,-0.0191981 -0.0361837,-0.028856 -0.0611287,-0.028856 -0.0243291,0 -0.0445863,0.00941467 -0.0607599,0.0281224 -0.0161815,0.0188333 -0.0242075,0.0472028 -0.0242075,0.0854735z"/>
   <path id="_127033456" class="fil3" d="M0.223312 1.59782l0.0357561 0.00837514c-0.00461319,0.0184057 -0.0118429,0.0324061 -0.0217754,0.0420051 -0.00988541,0.00965788 -0.0222971,0.014428 -0.0371919,0.014428 -0.0235641,0 -0.0409813,-0.0107602 -0.0523063,-0.0324022 -0.00892825,-0.0173034 -0.0134159,-0.0391925 -0.0134159,-0.0655418 0,-0.031547 0.00588025,-0.0562487 0.0176407,-0.0741013 0.0117134,-0.0178526 0.026569,-0.0267808 0.0445079,-0.0267808 0.020167,0 0.0360621,0.00935583 0.0477363,0.0280636 0.0116271,0.0187077 0.0172014,0.0473244 0.0167228,0.085901l-0.0898474 0c0.000258903,0.0149183 0.0031343,0.0265337 0.00866542,0.0347872 0.00553504,0.00831629 0.0124587,0.0124744 0.0206887,0.0124744 0.00561742,0 0.0103208,-0.00214184 0.0141534,-0.00642159 0.00383256,-0.00433859 0.0067511,-0.0112466 0.00866542,-0.0207868zm0.00204769 -0.0508667c-0.000262826,-0.0146124 -0.00291855,-0.0256785 -0.00801424,-0.0332613 -0.00509569,-0.00757881 -0.0113211,-0.0113721 -0.0186411,-0.0113721 -0.00783771,0 -0.0142828,0.00403654 -0.0193785,0.0120469 -0.00509569,0.00794755 -0.00762196,0.0188293 -0.00753566,0.0325865l0.0535695 0z"/>
   <path id="_1270334561" class="fil3" d="M0.413461 1.65835l-0.0358424 0 0 -0.0970888c0,-0.0205436 -0.000788479,-0.0338104 -0.00231052,-0.0398633 -0.00152596,-0.00599009 -0.00405223,-0.0106974 -0.00749251,-0.0140632 -0.00343636,-0.00329906 -0.00757489,-0.00501331 -0.0124117,-0.00501331 -0.00622937,0 -0.0118036,0.00238505 -0.0167228,0.00715515 -0.00492309,0.00482894 -0.00832022,0.011125 -0.0101482,0.0190137 -0.00182802,0.00788871 -0.00274202,0.0224383 -0.00274202,0.0437155l0 0.0861442 -0.0358424 0 0 -0.190204 0.0332691 0 0 0.027942c0.0118507,-0.0215243 0.0267455,-0.0322845 0.0446844,-0.0322845 0.00788479,0 0.0151576,0.00202023 0.021693,0.00599401 0.00653143,0.00403262 0.0114977,0.0091087 0.0148516,0.0153459 0.00335398,0.00623722 0.00570372,0.0132668 0.00701001,0.0211516 0.00134944,0.00788871 0.00200454,0.0191392 0.00200454,0.0338104l0 0.118244z"/>
   <path id="_12703345612" class="fil3" d="M0.48706 1.65835l-0.0546129 -0.190204 0.0376312 0 0.0255216 0.0970888 0.00740229 0.0324022c0.00196139,-0.00825353 0.00322453,-0.0136944 0.0037031,-0.0163227 0.00121998,-0.00537813 0.00248312,-0.0107602 0.00383256,-0.0160795l0.0257844 -0.0970888 0.0368859 0 -0.0538755 0.190204 -0.0322727 0z"/>
   <path id="_127033456123" class="fil3" d="M0.595156 1.44235l0 -0.0465869 0.0358424 0 0 0.0465869 -0.0358424 0zm0 0.216004l0 -0.190204 0.0358424 0 0 0.190204 -0.0358424 0z"/>
   <path id="_1270334561234" class="fil3" d="M0.655132 1.60406l0.0359719 -0.00770434c0.00152596,0.00978341 0.00461711,0.0172406 0.00932053,0.0223167 0.00466026,0.00507608 0.0111917,0.00764158 0.0196414,0.00764158 0.00927737,0 0.0162442,-0.00238505 0.0209045,-0.00721399 0.00318137,-0.00330298 0.00474656,-0.00782595 0.00474656,-0.0133884 0,-0.00385217 -0.000870857,-0.00703354 -0.00256942,-0.0095402 -0.00178486,-0.00238113 -0.00579395,-0.00458573 -0.0119762,-0.00660204 -0.0289187,-0.00892432 -0.0472538,-0.017119 -0.0550052,-0.0245174 -0.010717,-0.0102698 -0.0160716,-0.0245762 -0.0160716,-0.0428564 0,-0.0164482 0.00461711,-0.030327 0.0138945,-0.0415148 0.00927737,-0.0112505 0.0236465,-0.0168758 0.0431153,-0.0168758 0.0185508,0 0.032359,0.00427975 0.0413736,0.0127177 0.00901847,0.00850066 0.0152008,0.0210339 0.0185979,0.0376626l-0.0337947 0.00874388c-0.00143966,-0.00739836 -0.00418168,-0.0130864 -0.00823392,-0.0169974 -0.00404831,-0.00397378 -0.00979518,-0.00593124 -0.0172877,-0.00593124 -0.00944998,0 -0.0162011,0.00183586 -0.0202965,0.0055625 -0.00269887,0.00263219 -0.00405223,0.00605285 -0.00405223,0.010211 0,0.00360896 0.00117683,0.00660204 0.00356973,0.0091087 0.00322845,0.00336575 0.014377,0.00807308 0.0334966,0.0141848 0.0190726,0.00605285 0.0324022,0.013514 0.0399771,0.0223795 0.00749251,0.00898709 0.0112388,0.0214576 0.0112388,0.0374155 0,0.017425 -0.00518199,0.0324649 -0.0155931,0.0449982 -0.0103679,0.0125333 -0.0256942,0.0187705 -0.0460338,0.0187705 -0.0184684,0 -0.0330573,-0.00525653 -0.0438567,-0.0157735 -0.0107602,-0.0104542 -0.0177702,-0.0247606 -0.0210771,-0.0427975z"/>
   <path id="_12703345612345" class="fil3" d="M0.81309 1.44235l0 -0.0465869 0.0358424 0 0 0.0465869 -0.0358424 0zm0 0.216004l0 -0.190204 0.0358424 0 0 0.190204 -0.0358424 0z"/>
   <path id="_127033456123456" class="fil3" d="M0.877373 1.56053c0,-0.0166914 0.00295778,-0.0328925 0.00879487,-0.0485444 0.00588025,-0.0155891 0.0142005,-0.0275732 0.0249567,-0.0357679 0.0107563,-0.00825353 0.0227796,-0.0124117 0.0360582,-0.0124117 0.020473,0 0.0372821,0.00935583 0.050392,0.0280636 0.0131099,0.0187077 0.0196414,0.0423111 0.0196414,0.0708611 0,0.0287344 -0.00661773,0.0525809 -0.019814,0.0715319 -0.0132394,0.0189549 -0.0298798,0.0283695 -0.0499566,0.0283695 -0.0124548,0 -0.0242585,-0.00391101 -0.0355365,-0.0117997 -0.0112819,-0.00788871 -0.019861,-0.0194413 -0.0257413,-0.0346656 -0.0058371,-0.0152243 -0.00879487,-0.0337477 -0.00879487,-0.0556368zm0.0367564 0.00269103c0,0.0188921 0.00318137,0.0333201 0.00958335,0.0433467 0.0063549,0.0100266 0.0142397,0.0150399 0.0236034,0.0150399 0.00936368,0 0.0172014,-0.00501331 0.0235171,-0.0150399 0.00635883,-0.0100266 0.0095402,-0.0245762 0.0095402,-0.0437155 0,-0.0185861 -0.00318137,-0.0329514 -0.0095402,-0.0429819 -0.00631568,-0.0100266 -0.0141534,-0.0150399 -0.0235171,-0.0150399 -0.00936368,0 -0.0172485,0.00501331 -0.0236034,0.0150399 -0.00640198,0.0100305 -0.00958335,0.0245174 -0.00958335,0.0433506z"/>
   <path id="_1270334561234567" class="fil3" d="M1.16856 1.65835l-0.0358424 0 0 -0.0970888c0,-0.0205436 -0.000788479,-0.0338104 -0.00231052,-0.0398633 -0.00152596,-0.00599009 -0.00405223,-0.0106974 -0.00749251,-0.0140632 -0.00343636,-0.00329906 -0.00757489,-0.00501331 -0.0124117,-0.00501331 -0.00622937,0 -0.0118036,0.00238505 -0.0167228,0.00715515 -0.00492309,0.00482894 -0.00832022,0.011125 -0.0101482,0.0190137 -0.00182802,0.00788871 -0.00274202,0.0224383 -0.00274202,0.0437155l0 0.0861442 -0.0358424 0 0 -0.190204 0.0332691 0 0 0.027942c0.0118507,-0.0215243 0.0267455,-0.0322845 0.0446844,-0.0322845 0.00788479,0 0.0151576,0.00202023 0.021693,0.00599401 0.00653143,0.00403262 0.0114977,0.0091087 0.0148516,0.0153459 0.00335398,0.00623722 0.00570372,0.0132668 0.00701001,0.0211516 0.00134944,0.00788871 0.00200454,0.0191392 0.00200454,0.0338104l0 0.118244z"/>
   <path id="_12703345612345678" class="fil3" d="M1.20493 1.44235l0 -0.0465869 0.0358424 0 0 0.0465869 -0.0358424 0zm0 0.216004l0 -0.190204 0.0358424 0 0 0.190204 -0.0358424 0z"/>
   <path id="_127033456123456789" class="fil3" d="M1.40078 1.65835l-0.0358424 0 0 -0.0970888c0,-0.0205436 -0.000788479,-0.0338104 -0.00231052,-0.0398633 -0.00152596,-0.00599009 -0.00405223,-0.0106974 -0.00749251,-0.0140632 -0.00343636,-0.00329906 -0.00757489,-0.00501331 -0.0124117,-0.00501331 -0.00622937,0 -0.0118036,0.00238505 -0.0167228,0.00715515 -0.00492309,0.00482894 -0.00832022,0.011125 -0.0101482,0.0190137 -0.00182802,0.00788871 -0.00274202,0.0224383 -0.00274202,0.0437155l0 0.0861442 -0.0358424 0 0 -0.190204 0.0332691 0 0 0.027942c0.0118507,-0.0215243 0.0267455,-0.0322845 0.0446844,-0.0322845 0.00788479,0 0.0151576,0.00202023 0.021693,0.00599401 0.00653143,0.00403262 0.0114977,0.0091087 0.0148516,0.0153459 0.00335398,0.00623722 0.00570372,0.0132668 0.00701001,0.0211516 0.00134944,0.00788871 0.00200454,0.0191392 0.00200454,0.0338104l0 0.118244z"/>
   <path id="_12703345612345678910" class="fil3" d="M1.43383 1.67088l0.0409381 0.00697078c0.000698255,0.00672364 0.00226737,0.0113094 0.00470734,0.013816 0.0033932,0.00360896 0.00879487,0.00538205 0.0160677,0.00538205 0.0093676,0 0.0163776,-0.00195747 0.021081,-0.00593124 0.0031343,-0.00262826 0.00553112,-0.00684917 0.00713946,-0.0127177 0.00109053,-0.00415815 0.00165934,-0.0118625 0.00165934,-0.0231091l0 -0.0277576c-0.010717,0.0205436 -0.0242624,0.0308134 -0.0405929,0.0308134 -0.0182056,0 -0.0326218,-0.0108229 -0.0432486,-0.0324022 -0.00831629,-0.017119 -0.012498,-0.0383373 -0.012498,-0.0637687 0,-0.0319157 0.00548797,-0.0562487 0.0164208,-0.0731245 0.0109328,-0.016813 0.0245213,-0.0252509 0.0407616,-0.0252509 0.0167267,0 0.0305741,0.0103326 0.0414638,0.0309978l0 -0.0266553 0.0335358 0 0 0.1707c0,0.0224383 -0.00130629,0.0391925 -0.00396593,0.0503175 -0.00261257,0.0111289 -0.00631568,0.01981 -0.0110583,0.0261689 -0.00479364,0.00629606 -0.0111485,0.0112505 -0.0190765,0.0148556 -0.00797109,0.00354619 -0.0180291,0.00538205 -0.0301819,0.00538205 -0.0229953,0 -0.0392827,-0.00556642 -0.0488661,-0.0165698 -0.00962258,-0.0110662 -0.0144162,-0.0250666 -0.0144162,-0.0420012 0,-0.00171425 4.31506e-005,-0.00373056 0.000129452,-0.00611561zm0.0320099 -0.11158c0,0.0201749 0.0027891,0.0349716 0.00836337,0.0443274 0.00557427,0.00935191 0.0124156,0.0140632 0.0206024,0.0140632 0.00875172,0 0.016154,-0.00483286 0.0222108,-0.0144319 0.0060097,-0.00959904 0.0090577,-0.0238427 0.0090577,-0.0427348 0,-0.0196884 -0.00291855,-0.0343008 -0.00871249,-0.0438371 -0.00574687,-0.00959904 -0.0130629,-0.0143691 -0.0219048,-0.0143691 -0.00862227,0 -0.0156794,0.00470734 -0.0212536,0.0140632 -0.00557427,0.00941467 -0.00836337,0.0236622 -0.00836337,0.0429191z"/>
   <path id="_1270334561234567891011" class="fil3" d="M1.65364 1.46815l0.0199042 0 0 -0.0143691c0,-0.0159539 0.00121998,-0.027938 0.00365995,-0.0358267 0.00243997,-0.00788479 0.00687663,-0.0143064 0.0133688,-0.0192569 0.00653143,-0.00495447 0.0147653,-0.00739836 0.0246939,-0.00739836 0.0102345,0 0.0202062,0.00213792 0.0300053,0.00641767l-0.00483286 0.035156c-0.00570372,-0.00195747 -0.0111917,-0.00287147 -0.01646,-0.00287147 -0.00522907,0 -0.00892825,0.00164757 -0.0111956,0.00507215 -0.00226344,0.00342459 -0.00335398,0.00996778 -0.00335398,0.0196257l0 0.0134512 0.0267847 0 0 0.0395573 -0.0267847 0 0 0.150647 -0.0358856 0 0 -0.150647 -0.0199042 0 0 -0.0395573z"/>
   <path id="_127033456123456789101112" class="fil3" d="M1.84557 1.65835l0 -0.0284912c-0.00496624,0.0101482 -0.0114545,0.0181585 -0.0194688,0.024027 -0.00805739,0.00580964 -0.0165502,0.00874388 -0.0254785,0.00874388 -0.00910085,0 -0.0172445,-0.00281263 -0.0244781,-0.00837514 -0.00722576,-0.00562527 -0.0124548,-0.013514 -0.0157186,-0.0236622 -0.00322453,-0.0101482 -0.00483679,-0.0242114 -0.00483679,-0.0421228l0 -0.120323 0.0358464 0 0 0.0873682c0,0.0267769 0.000651181,0.0431623 0.00200062,0.0492152 0.00130629,0.00599401 0.0037031,0.0107602 0.00718653,0.0143064 0.00348343,0.00354619 0.00792794,0.00526045 0.0132825,0.00526045 0.00614307,0 0.0116271,-0.00232229 0.0164639,-0.00703354 0.00483286,-0.00476618 0.00814369,-0.0105758 0.00992856,-0.0175466 0.00178486,-0.00702962 0.00269887,-0.0241486 0.00269887,-0.051357l0 -0.080213 0.0358464 0 0 0.190204 -0.033273 0z"/>
   <path id="_12703345612345678910111213" class="fil3" d="M1.9781 1.46815l0 0.0401065 -0.0244781 0 0 0.0766707c0,0.0155264 0.000219676,0.0245762 0.000698255,0.0271456 0.000478579,0.0025655 0.00152596,0.00464457 0.00318137,0.00635883 0.00165541,0.00164757 0.00369918,0.00250666 0.00605285,0.00250666 0.00335398,0 0.00814369,-0.00165149 0.0144594,-0.00483286l0.003048 0.0390081c-0.00836337,0.00501331 -0.0177702,0.00751997 -0.0283539,0.00751997 -0.00644513,0 -0.0122783,-0.00152988 -0.0174642,-0.00452297 -0.00518199,-0.00305977 -0.00896748,-0.00703354 -0.0114074,-0.0118625 -0.00243997,-0.00482894 -0.00409538,-0.0113721 -0.00505254,-0.0196257 -0.000741405,-0.00580964 -0.00113368,-0.0176682 -0.00113368,-0.0354619l0 -0.082904 -0.0164639 0 0 -0.0401065 0.0164639 0 0 -0.037847 0.0359719 -0.0293463 0 0.0671933 0.0244781 0z"/>
   <path id="_1270334561234567891011121314" class="fil3" d="M2.0922 1.65835l0 -0.0284912c-0.00496624,0.0101482 -0.0114545,0.0181585 -0.0194688,0.024027 -0.00805739,0.00580964 -0.0165502,0.00874388 -0.0254785,0.00874388 -0.00910085,0 -0.0172445,-0.00281263 -0.0244781,-0.00837514 -0.00722576,-0.00562527 -0.0124548,-0.013514 -0.0157186,-0.0236622 -0.00322453,-0.0101482 -0.00483679,-0.0242114 -0.00483679,-0.0421228l0 -0.120323 0.0358464 0 0 0.0873682c0,0.0267769 0.000651181,0.0431623 0.00200062,0.0492152 0.00130629,0.00599401 0.0037031,0.0107602 0.00718653,0.0143064 0.00348343,0.00354619 0.00792794,0.00526045 0.0132825,0.00526045 0.00614307,0 0.0116271,-0.00232229 0.0164639,-0.00703354 0.00483286,-0.00476618 0.00814369,-0.0105758 0.00992856,-0.0175466 0.00178486,-0.00702962 0.00269887,-0.0241486 0.00269887,-0.051357l0 -0.080213 0.0358464 0 0 0.190204 -0.033273 0z"/>
   <path id="_127033456123456789101112131415" class="fil3" d="M2.19695 1.65835l-0.0358424 0 0 -0.190204 0.0332691 0 0 0.027024c0.00570764,-0.0127804 0.0108465,-0.0212144 0.0153773,-0.0252509 0.00457396,-0.00403654 0.0097128,-0.00611561 0.0155067,-0.00611561 0.00818684,0 0.0160246,0.00318137 0.0236034,0.0095402l-0.0111054 0.0438371c-0.0060097,-0.0054409 -0.011631,-0.00819469 -0.016813,-0.00819469 -0.00505254,0 -0.00927737,0.0018947 -0.0127608,0.00580964 -0.00352658,0.00385217 -0.00622937,0.0108818 -0.00822999,0.02103 -0.00200454,0.0101522 -0.00300485,0.0314254 -0.00300485,0.0637687l0 0.0587554z"/>
   <path id="_12703345612345678910111213141516" class="fil3" d="M2.34275 1.59782l0.0357561 0.00837514c-0.00461319,0.0184057 -0.0118429,0.0324061 -0.0217754,0.0420051 -0.00988541,0.00965788 -0.0222971,0.014428 -0.0371919,0.014428 -0.0235641,0 -0.0409813,-0.0107602 -0.0523063,-0.0324022 -0.00892825,-0.0173034 -0.0134159,-0.0391925 -0.0134159,-0.0655418 0,-0.031547 0.00588025,-0.0562487 0.0176407,-0.0741013 0.0117134,-0.0178526 0.026569,-0.0267808 0.0445079,-0.0267808 0.020167,0 0.0360621,0.00935583 0.0477363,0.0280636 0.0116271,0.0187077 0.0172014,0.0473244 0.0167228,0.085901l-0.0898474 0c0.000258903,0.0149183 0.0031343,0.0265337 0.00866542,0.0347872 0.00553504,0.00831629 0.0124587,0.0124744 0.0206887,0.0124744 0.00561742,0 0.0103208,-0.00214184 0.0141534,-0.00642159 0.00383256,-0.00433859 0.0067511,-0.0112466 0.00866542,-0.0207868zm0.00204769 -0.0508667c-0.000262826,-0.0146124 -0.00291855,-0.0256785 -0.00801424,-0.0332613 -0.00509569,-0.00757881 -0.0113211,-0.0113721 -0.0186411,-0.0113721 -0.00783771,0 -0.0142828,0.00403654 -0.0193785,0.0120469 -0.00509569,0.00794755 -0.00762196,0.0188293 -0.00753566,0.0325865l0.0535695 0z"/>
   <path id="_1270334561234567891011121314151617" class="fil3" d="M2.48225 1.44235l0 -0.0465869 0.0358424 0 0 0.0465869 -0.0358424 0zm0 0.216004l0 -0.190204 0.0358424 0 0 0.190204 -0.0358424 0z"/>
   <path id="_127033456123456789101112131415161718" class="fil3" d="M2.67811 1.65835l-0.0358424 0 0 -0.0970888c0,-0.0205436 -0.000788479,-0.0338104 -0.00231052,-0.0398633 -0.00152596,-0.00599009 -0.00405223,-0.0106974 -0.00749251,-0.0140632 -0.00343636,-0.00329906 -0.00757489,-0.00501331 -0.0124117,-0.00501331 -0.00622937,0 -0.0118036,0.00238505 -0.0167228,0.00715515 -0.00492309,0.00482894 -0.00832022,0.011125 -0.0101482,0.0190137 -0.00182802,0.00788871 -0.00274202,0.0224383 -0.00274202,0.0437155l0 0.0861442 -0.0358424 0 0 -0.190204 0.0332691 0 0 0.027942c0.0118507,-0.0215243 0.0267455,-0.0322845 0.0446844,-0.0322845 0.00788479,0 0.0151576,0.00202023 0.021693,0.00599401 0.00653143,0.00403262 0.0114977,0.0091087 0.0148516,0.0153459 0.00335398,0.00623722 0.00570372,0.0132668 0.00701001,0.0211516 0.00134944,0.00788871 0.00200454,0.0191392 0.00200454,0.0338104l0 0.118244z"/>
   <path id="_12703345612345678910111213141516171819" class="fil3" d="M2.77658 1.46815l0 0.0401065 -0.0244781 0 0 0.0766707c0,0.0155264 0.000219676,0.0245762 0.000698255,0.0271456 0.000478579,0.0025655 0.00152596,0.00464457 0.00318137,0.00635883 0.00165541,0.00164757 0.00369918,0.00250666 0.00605285,0.00250666 0.00335398,0 0.00814369,-0.00165149 0.0144594,-0.00483286l0.003048 0.0390081c-0.00836337,0.00501331 -0.0177702,0.00751997 -0.0283539,0.00751997 -0.00644513,0 -0.0122783,-0.00152988 -0.0174642,-0.00452297 -0.00518199,-0.00305977 -0.00896748,-0.00703354 -0.0114074,-0.0118625 -0.00243997,-0.00482894 -0.00409538,-0.0113721 -0.00505254,-0.0196257 -0.000741405,-0.00580964 -0.00113368,-0.0176682 -0.00113368,-0.0354619l0 -0.082904 -0.0164639 0 0 -0.0401065 0.0164639 0 0 -0.037847 0.0359719 -0.0293463 0 0.0671933 0.0244781 0z"/>
   <path id="_1270334561234567891011121314151617181920" class="fil3" d="M2.87992 1.59782l0.0357561 0.00837514c-0.00461319,0.0184057 -0.0118429,0.0324061 -0.0217754,0.0420051 -0.00988541,0.00965788 -0.0222971,0.014428 -0.0371919,0.014428 -0.0235641,0 -0.0409813,-0.0107602 -0.0523063,-0.0324022 -0.00892825,-0.0173034 -0.0134159,-0.0391925 -0.0134159,-0.0655418 0,-0.031547 0.00588025,-0.0562487 0.0176407,-0.0741013 0.0117134,-0.0178526 0.026569,-0.0267808 0.0445079,-0.0267808 0.020167,0 0.0360621,0.00935583 0.0477363,0.0280636 0.0116271,0.0187077 0.0172014,0.0473244 0.0167228,0.085901l-0.0898474 0c0.000258903,0.0149183 0.0031343,0.0265337 0.00866542,0.0347872 0.00553504,0.00831629 0.0124587,0.0124744 0.0206887,0.0124744 0.00561742,0 0.0103208,-0.00214184 0.0141534,-0.00642159 0.00383256,-0.00433859 0.0067511,-0.0112466 0.00866542,-0.0207868zm0.00204769 -0.0508667c-0.000262826,-0.0146124 -0.00291855,-0.0256785 -0.00801424,-0.0332613 -0.00509569,-0.00757881 -0.0113211,-0.0113721 -0.0186411,-0.0113721 -0.00783771,0 -0.0142828,0.00403654 -0.0193785,0.0120469 -0.00509569,0.00794755 -0.00762196,0.0188293 -0.00753566,0.0325865l0.0535695 0z"/>
   <path id="_127033456123456789101112131415161718192021" class="fil3" d="M2.98114 1.65835l-0.0358424 0 0 -0.190204 0.0332691 0 0 0.027024c0.00570764,-0.0127804 0.0108465,-0.0212144 0.0153773,-0.0252509 0.00457396,-0.00403654 0.0097128,-0.00611561 0.0155067,-0.00611561 0.00818684,0 0.0160246,0.00318137 0.0236034,0.0095402l-0.0111054 0.0438371c-0.0060097,-0.0054409 -0.011631,-0.00819469 -0.016813,-0.00819469 -0.00505254,0 -0.00927737,0.0018947 -0.0127608,0.00580964 -0.00352658,0.00385217 -0.00622937,0.0108818 -0.00822999,0.02103 -0.00200454,0.0101522 -0.00300485,0.0314254 -0.00300485,0.0637687l0 0.0587554z"/>
   <path id="_12703345612345678910111213141516171819202122" class="fil3" d="M3.17177 1.65835l-0.0358424 0 0 -0.0970888c0,-0.0205436 -0.000788479,-0.0338104 -0.00231052,-0.0398633 -0.00152596,-0.00599009 -0.00405223,-0.0106974 -0.00749251,-0.0140632 -0.00343636,-0.00329906 -0.00757489,-0.00501331 -0.0124117,-0.00501331 -0.00622937,0 -0.0118036,0.00238505 -0.0167228,0.00715515 -0.00492309,0.00482894 -0.00832022,0.011125 -0.0101482,0.0190137 -0.00182802,0.00788871 -0.00274202,0.0224383 -0.00274202,0.0437155l0 0.0861442 -0.0358424 0 0 -0.190204 0.0332691 0 0 0.027942c0.0118507,-0.0215243 0.0267455,-0.0322845 0.0446844,-0.0322845 0.00788479,0 0.0151576,0.00202023 0.021693,0.00599401 0.00653143,0.00403262 0.0114977,0.0091087 0.0148516,0.0153459 0.00335398,0.00623722 0.00570372,0.0132668 0.00701001,0.0211516 0.00134944,0.00788871 0.00200454,0.0191392 0.00200454,0.0338104l0 0.118244z"/>
   <path id="_1270334561234567891011121314151617181920212223" class="fil3" d="M3.28657 1.59782l0.0357561 0.00837514c-0.00461319,0.0184057 -0.0118429,0.0324061 -0.0217754,0.0420051 -0.00988541,0.00965788 -0.0222971,0.014428 -0.0371919,0.014428 -0.0235641,0 -0.0409813,-0.0107602 -0.0523063,-0.0324022 -0.00892825,-0.0173034 -0.0134159,-0.0391925 -0.0134159,-0.0655418 0,-0.031547 0.00588025,-0.0562487 0.0176407,-0.0741013 0.0117134,-0.0178526 0.026569,-0.0267808 0.0445079,-0.0267808 0.020167,0 0.0360621,0.00935583 0.0477363,0.0280636 0.0116271,0.0187077 0.0172014,0.0473244 0.0167228,0.085901l-0.0898474 0c0.000258903,0.0149183 0.0031343,0.0265337 0.00866542,0.0347872 0.00553504,0.00831629 0.0124587,0.0124744 0.0206887,0.0124744 0.00561742,0 0.0103208,-0.00214184 0.0141534,-0.00642159 0.00383256,-0.00433859 0.0067511,-0.0112466 0.00866542,-0.0207868zm0.00204769 -0.0508667c-0.000262826,-0.0146124 -0.00291855,-0.0256785 -0.00801424,-0.0332613 -0.00509569,-0.00757881 -0.0113211,-0.0113721 -0.0186411,-0.0113721 -0.00783771,0 -0.0142828,0.00403654 -0.0193785,0.0120469 -0.00509569,0.00794755 -0.00762196,0.0188293 -0.00753566,0.0325865l0.0535695 0z"/>
   <path id="_127033456123456789101112131415161718192021222324" class="fil3" d="M3.41557 1.46815l0 0.0401065 -0.0244781 0 0 0.0766707c0,0.0155264 0.000219676,0.0245762 0.000698255,0.0271456 0.000478579,0.0025655 0.00152596,0.00464457 0.00318137,0.00635883 0.00165541,0.00164757 0.00369918,0.00250666 0.00605285,0.00250666 0.00335398,0 0.00814369,-0.00165149 0.0144594,-0.00483286l0.003048 0.0390081c-0.00836337,0.00501331 -0.0177702,0.00751997 -0.0283539,0.00751997 -0.00644513,0 -0.0122783,-0.00152988 -0.0174642,-0.00452297 -0.00518199,-0.00305977 -0.00896748,-0.00703354 -0.0114074,-0.0118625 -0.00243997,-0.00482894 -0.00409538,-0.0113721 -0.00505254,-0.0196257 -0.000741405,-0.00580964 -0.00113368,-0.0176682 -0.00113368,-0.0354619l0 -0.082904 -0.0164639 0 0 -0.0401065 0.0164639 0 0 -0.037847 0.0359719 -0.0293463 0 0.0671933 0.0244781 0z"/>
  </g>
 </g>
</svg>
